<?xml version="1.0" standalone="no"?>
<!DOCTYPE svg PUBLIC "-//W3C//DTD SVG 20010904//EN"
 "http://www.w3.org/TR/2001/REC-SVG-20010904/DTD/svg10.dtd">
<svg version="1.0" xmlns="http://www.w3.org/2000/svg"
 width="578.000000pt" height="578.000000pt" viewBox="0 0 578.000000 578.000000"
 preserveAspectRatio="xMidYMid meet">
<metadata>
Created by potrace 1.14, written by Peter Selinger 2001-2017
</metadata>
<g transform="translate(0.000000,578.000000) scale(0.100000,-0.100000)"
fill="#000000" stroke="none">
<path d="M3395 5759 c-3 -3 -16 -5 -30 -4 -14 2 -25 0 -25 -3 0 -4 -132 -7
-293 -8 -160 0 -308 -4 -327 -9 -19 -4 -231 -8 -470 -9 -239 -1 -441 -5 -448
-10 -8 -4 -30 -10 -50 -11 -20 -2 -37 -4 -37 -5 0 -1 -27 -7 -62 -14 -7 -1
-15 -5 -19 -8 -3 -4 -12 -4 -20 -1 -8 3 -14 1 -14 -4 0 -5 -8 -9 -17 -10 -37
-3 -58 -8 -64 -16 -3 -4 -16 -10 -29 -12 -13 -2 -27 -10 -31 -16 -4 -7 -14 -9
-23 -6 -10 4 -16 1 -16 -9 0 -10 -6 -14 -15 -10 -9 3 -15 0 -15 -8 0 -10 -7
-12 -22 -8 -14 3 -19 2 -14 -6 5 -8 0 -12 -13 -12 -12 0 -21 -5 -21 -11 0 -5
-5 -7 -10 -4 -6 3 -13 -1 -16 -9 -3 -9 -11 -16 -18 -16 -6 0 -23 -11 -38 -24
-14 -14 -29 -22 -32 -19 -3 4 -6 -1 -6 -10 0 -9 -5 -17 -11 -17 -5 0 -7 5 -3
12 4 6 3 8 -4 4 -6 -3 -9 -16 -7 -27 4 -18 2 -19 -11 -8 -12 10 -15 10 -12 -2
2 -8 -2 -13 -9 -12 -8 2 -10 -4 -6 -14 4 -10 2 -14 -4 -10 -6 4 -14 0 -17 -9
-3 -8 -10 -13 -15 -9 -6 3 -8 -4 -6 -16 4 -18 2 -19 -11 -8 -12 10 -15 10 -12
-2 2 -8 -2 -13 -9 -12 -7 2 -10 -4 -6 -13 3 -9 0 -14 -8 -12 -8 2 -13 -3 -11
-11 2 -9 -3 -11 -13 -7 -9 3 -14 2 -10 -3 3 -5 -6 -19 -21 -30 -15 -12 -23
-25 -18 -32 5 -8 3 -9 -6 -4 -10 6 -12 4 -7 -9 5 -14 3 -17 -8 -12 -8 3 -15 1
-15 -5 0 -6 -4 -7 -10 -4 -6 4 -7 -1 -3 -11 4 -12 3 -15 -5 -10 -8 5 -12 0
-12 -13 0 -12 -6 -20 -12 -19 -7 2 -12 -3 -10 -9 1 -7 -5 -13 -14 -13 -8 0
-12 -4 -9 -10 3 -5 1 -10 -5 -10 -6 0 -9 -4 -6 -9 3 -4 -6 -13 -19 -19 -14 -7
-25 -16 -25 -22 0 -6 -4 -9 -9 -5 -5 3 -12 -4 -16 -15 -4 -11 -10 -18 -15 -15
-5 3 -11 -4 -15 -15 -3 -11 -11 -20 -16 -20 -5 0 -9 -7 -9 -15 0 -8 -3 -15 -8
-15 -4 0 -13 -14 -21 -31 -8 -18 -19 -28 -27 -25 -8 3 -11 0 -7 -9 3 -8 -2
-18 -11 -21 -9 -3 -13 -10 -10 -15 3 -5 -2 -12 -10 -15 -9 -3 -13 -11 -9 -17
4 -6 0 -8 -10 -4 -11 4 -14 2 -10 -8 3 -8 -2 -17 -10 -21 -9 -3 -14 -11 -11
-19 3 -7 -2 -15 -11 -19 -9 -3 -15 -12 -13 -19 2 -8 -10 -26 -27 -41 -16 -15
-23 -25 -15 -21 8 4 7 0 -4 -9 -20 -16 -41 -48 -52 -78 -3 -10 -10 -15 -15
-12 -5 3 -9 2 -8 -3 3 -20 -2 -34 -11 -28 -6 4 -9 3 -8 -2 4 -15 -21 -73 -31
-73 -6 0 -10 -3 -10 -7 3 -19 -2 -33 -17 -47 -9 -10 -11 -16 -4 -16 7 0 5 -7
-4 -16 -9 -8 -14 -20 -10 -25 3 -6 1 -15 -4 -22 -5 -7 -10 -19 -10 -27 -1 -18
-10 -75 -12 -75 -5 0 -11 -50 -14 -113 -2 -40 -6 -75 -9 -78 -2 -3 -1 -21 3
-40 4 -18 5 -34 1 -34 -11 0 -13 -261 -13 -1535 0 -1180 1 -1290 15 -1312 3
-5 7 -28 8 -51 2 -23 7 -42 11 -42 4 0 8 -13 8 -30 0 -16 5 -30 11 -30 8 0 8
-5 -1 -15 -10 -12 -9 -16 4 -21 10 -4 15 -13 12 -20 -3 -8 -2 -14 3 -14 8 0
34 -54 32 -65 -1 -3 5 -13 14 -21 8 -9 13 -20 10 -25 -4 -5 -1 -9 5 -9 6 0 9
-4 5 -9 -3 -5 -1 -12 5 -16 6 -4 8 -11 5 -16 -3 -5 1 -6 10 -3 9 4 15 3 13 -2
-4 -15 13 -54 23 -54 6 0 7 -5 4 -10 -3 -6 -1 -10 5 -10 7 0 10 -7 7 -14 -4
-11 -1 -13 10 -9 11 4 14 2 9 -5 -4 -7 -2 -12 6 -12 11 0 10 -2 0 -9 -10 -6
-9 -10 7 -14 14 -3 21 -13 21 -28 0 -12 3 -20 6 -16 7 7 54 -46 54 -62 0 -6 7
-11 16 -11 8 0 13 -4 10 -9 -3 -4 4 -17 17 -27 18 -16 19 -16 8 -1 -7 9 -9 17
-3 17 13 0 24 -29 15 -42 -3 -7 -1 -8 5 -4 7 4 12 3 12 -3 0 -5 10 -13 21 -16
17 -6 19 -9 8 -17 -10 -7 -8 -9 8 -5 15 3 20 1 16 -9 -3 -8 2 -17 11 -20 9 -3
13 -10 10 -15 -3 -5 2 -6 10 -3 10 4 16 1 16 -7 0 -7 3 -10 6 -6 9 8 33 -16
26 -27 -3 -5 1 -6 8 -1 8 5 21 -3 36 -20 13 -16 24 -24 24 -19 0 6 -6 16 -12
24 -12 14 27 -18 60 -48 8 -7 21 -11 28 -8 8 3 13 0 11 -7 -1 -7 4 -11 11 -10
6 2 12 -1 12 -5 0 -5 18 -15 40 -22 21 -7 37 -16 35 -20 -3 -4 1 -7 8 -7 14 2
100 -25 107 -33 6 -6 29 -12 48 -13 6 0 12 -3 12 -7 0 -3 15 -6 33 -7 72 -3
96 -6 92 -13 -2 -3 6 -6 18 -6 12 -1 47 -4 77 -7 85 -10 2623 -26 2732 -17 15
1 25 6 22 11 -3 5 2 6 11 3 8 -4 26 1 40 10 13 9 32 13 41 9 13 -5 15 -3 9 7
-6 10 -4 12 8 7 10 -3 17 -2 17 3 0 6 5 10 11 10 6 0 17 7 25 15 8 8 22 11 31
8 11 -4 14 -3 9 5 -4 7 -1 12 9 12 8 0 18 7 21 15 4 8 14 15 24 15 11 0 22 5
26 12 5 7 3 8 -6 3 -8 -5 -11 -4 -6 3 4 6 13 9 21 5 8 -3 15 0 15 6 0 6 3 10
8 9 14 -3 42 14 37 23 -3 4 3 6 14 4 15 -3 18 0 14 12 -4 11 -2 14 5 9 7 -4
12 -1 12 9 0 8 8 18 18 22 27 10 54 42 46 56 -5 8 -2 7 9 -2 15 -12 17 -12 12
1 -3 8 2 21 12 29 17 13 17 13 3 -6 -14 -19 -14 -19 3 -6 9 7 17 20 17 28 0 8
5 11 10 8 9 -6 15 8 11 29 -1 5 5 6 14 2 9 -3 14 -2 11 3 -3 5 1 14 10 21 8 7
13 19 10 27 -5 11 5 17 25 15 4 -1 4 8 1 20 -3 14 -1 19 6 14 7 -4 12 -1 12 8
0 9 6 16 13 16 8 0 7 4 -3 10 -12 8 -11 10 5 10 14 0 21 7 22 22 1 13 12 31
23 40 12 10 19 22 15 28 -3 5 1 10 10 10 11 0 15 5 12 14 -4 11 -1 13 10 9 11
-4 14 -2 9 5 -4 6 2 20 14 32 11 11 20 24 20 30 0 5 3 9 8 9 19 -3 25 2 12 11
-13 8 -12 10 4 10 12 0 16 5 12 16 -3 8 -2 12 3 9 5 -3 13 0 17 6 4 8 9 7 16
-2 7 -10 7 -8 3 8 -4 16 0 25 15 33 11 6 20 17 20 24 0 8 7 17 16 20 9 3 12
11 8 18 -5 8 -2 9 9 5 9 -3 16 -3 15 1 -1 4 2 17 6 30 5 16 13 22 24 17 9 -3
13 -3 9 1 -4 4 -2 13 4 21 6 7 8 13 5 13 -4 0 -1 6 6 14 7 8 16 12 20 10 4 -3
5 5 3 16 -2 12 4 26 18 35 15 10 17 15 7 15 -11 1 -11 3 3 11 9 6 15 14 12 20
-4 5 -1 9 6 9 7 0 10 3 6 6 -3 4 0 13 8 21 8 8 15 23 15 34 0 11 6 22 13 25 8
3 14 10 14 17 0 7 7 28 15 47 24 52 31 74 30 82 -1 5 3 8 9 8 6 0 9 7 5 15 -3
8 -2 15 2 15 4 0 13 9 20 21 8 12 9 18 3 15 -6 -4 -4 6 4 20 8 15 12 31 9 36
-3 4 -1 8 5 8 5 0 8 11 7 25 -2 13 0 22 5 20 4 -3 8 3 9 12 2 48 8 80 17 98 6
11 9 28 8 38 -2 9 0 17 4 17 6 0 6 731 0 768 -1 6 -5 12 -8 12 -3 0 -7 307 -8
682 -2 591 -4 753 -13 753 -1 0 -4 171 -6 380 -4 417 -3 405 -17 405 -5 0 -7
9 -4 20 3 11 1 20 -5 20 -6 0 -8 7 -4 15 3 8 2 15 -3 15 -5 0 -7 11 -6 25 2
14 -1 25 -6 25 -4 0 -6 6 -3 14 3 8 1 17 -5 21 -6 3 -11 16 -11 29 0 12 -4 26
-10 32 -5 5 -11 19 -13 31 -2 13 -7 26 -12 30 -4 5 -5 2 0 -6 5 -9 4 -12 -2
-8 -5 3 -9 16 -8 29 1 13 -4 29 -12 36 -7 8 -11 18 -8 23 4 5 1 9 -4 9 -6 0
-10 6 -9 13 2 6 -3 11 -10 9 -10 -2 -10 2 -2 18 9 16 8 20 -6 20 -10 0 -15 3
-11 6 3 4 -1 13 -9 21 -8 8 -12 19 -9 24 4 5 1 9 -5 9 -6 0 -8 5 -5 10 3 6 -1
10 -11 10 -13 0 -14 3 -5 14 9 11 8 14 -6 12 -10 0 -17 5 -15 12 1 6 -2 12 -8
12 -13 0 -41 56 -32 65 4 3 3 6 -3 5 -21 -5 -36 0 -30 10 3 6 -3 10 -15 10
-12 0 -19 4 -15 9 3 5 -1 16 -9 24 -8 8 -12 18 -8 22 4 5 1 5 -6 1 -13 -8 -45
17 -35 28 3 3 -6 10 -21 16 -15 5 -29 16 -32 24 -3 8 -12 12 -20 9 -8 -3 -14
-2 -13 3 4 22 -2 33 -16 28 -8 -4 -15 -1 -15 5 0 6 -8 8 -17 4 -16 -6 -17 -5
-3 12 9 11 10 16 3 11 -7 -4 -13 -2 -13 3 0 6 -5 11 -11 11 -5 0 -7 -5 -3 -12
4 -6 -4 -3 -18 8 -14 10 -23 23 -20 28 3 5 0 6 -6 2 -6 -3 -16 0 -24 7 -7 8
-19 12 -27 9 -9 -3 -11 0 -6 8 5 9 4 11 -4 6 -6 -4 -18 0 -27 8 -9 9 -19 14
-23 12 -4 -3 -34 8 -67 24 -41 19 -61 24 -66 16 -6 -8 -8 -8 -8 0 0 10 -32 24
-55 25 -3 0 -22 6 -44 14 -22 7 -42 11 -45 8 -3 -4 -6 -1 -6 5 0 6 -9 9 -20 7
-11 -2 -20 0 -20 5 0 5 -17 9 -37 9 -67 1 -83 3 -83 10 0 8 -890 9 -895 0z"/>
<path d="M4630 259 c0 -5 5 -7 10 -4 6 3 10 8 10 11 0 2 -4 4 -10 4 -5 0 -10
-5 -10 -11z"/>
</g>
</svg>
